<svg width="326" height="150" viewBox="0 0 326 150" fill="none" xmlns="http://www.w3.org/2000/svg">
<rect x="2.31055" y="1.5" width="320.617" height="147" rx="18.5" fill="white" stroke="#E47231" stroke-width="3"/>
<path d="M60.7003 121.2V138H58.9963V124.56L52.3963 135.864H51.5563L44.9563 124.632V138H43.2523V121.2H44.7163L52.0123 133.656L59.2363 121.2H60.7003ZM78.3902 125.376V138H76.7582V135.696C76.3102 136.464 75.6942 137.064 74.9102 137.496C74.1262 137.912 73.2302 138.12 72.2222 138.12C70.5742 138.12 69.2702 137.664 68.3102 136.752C67.3662 135.824 66.8942 134.472 66.8942 132.696V125.376H68.5982V132.528C68.5982 133.856 68.9262 134.864 69.5822 135.552C70.2382 136.24 71.1742 136.584 72.3902 136.584C73.7182 136.584 74.7662 136.184 75.5342 135.384C76.3022 134.568 76.6862 133.44 76.6862 132V125.376H78.3902ZM87.7466 138.12C86.7226 138.12 85.7386 137.976 84.7946 137.688C83.8666 137.384 83.1386 137.008 82.6106 136.56L83.3786 135.216C83.9066 135.632 84.5706 135.976 85.3706 136.248C86.1706 136.504 87.0026 136.632 87.8666 136.632C89.0186 136.632 89.8666 136.456 90.4106 136.104C90.9706 135.736 91.2506 135.224 91.2506 134.568C91.2506 134.104 91.0986 133.744 90.7946 133.488C90.4906 133.216 90.1066 133.016 89.6426 132.888C89.1786 132.744 88.5626 132.608 87.7946 132.48C86.7706 132.288 85.9466 132.096 85.3226 131.904C84.6986 131.696 84.1626 131.352 83.7146 130.872C83.2826 130.392 83.0666 129.728 83.0666 128.88C83.0666 127.824 83.5066 126.96 84.3866 126.288C85.2666 125.616 86.4906 125.28 88.0586 125.28C88.8746 125.28 89.6906 125.392 90.5066 125.616C91.3226 125.824 91.9946 126.104 92.5226 126.456L91.7786 127.824C90.7386 127.104 89.4986 126.744 88.0586 126.744C86.9706 126.744 86.1466 126.936 85.5866 127.32C85.0426 127.704 84.7706 128.208 84.7706 128.832C84.7706 129.312 84.9226 129.696 85.2266 129.984C85.5466 130.272 85.9386 130.488 86.4026 130.632C86.8666 130.76 87.5066 130.896 88.3226 131.04C89.3306 131.232 90.1386 131.424 90.7466 131.616C91.3546 131.808 91.8746 132.136 92.3066 132.6C92.7386 133.064 92.9546 133.704 92.9546 134.52C92.9546 135.624 92.4906 136.504 91.5626 137.16C90.6506 137.8 89.3786 138.12 87.7466 138.12ZM97.3048 125.376H99.0088V138H97.3048V125.376ZM98.1688 122.616C97.8168 122.616 97.5208 122.496 97.2808 122.256C97.0408 122.016 96.9208 121.728 96.9208 121.392C96.9208 121.072 97.0408 120.792 97.2808 120.552C97.5208 120.312 97.8168 120.192 98.1688 120.192C98.5208 120.192 98.8168 120.312 99.0568 120.552C99.2968 120.776 99.4168 121.048 99.4168 121.368C99.4168 121.72 99.2968 122.016 99.0568 122.256C98.8168 122.496 98.5208 122.616 98.1688 122.616ZM110.182 138.12C108.934 138.12 107.814 137.848 106.822 137.304C105.846 136.76 105.078 136 104.518 135.024C103.958 134.032 103.678 132.92 103.678 131.688C103.678 130.456 103.958 129.352 104.518 128.376C105.078 127.4 105.846 126.64 106.822 126.096C107.814 125.552 108.934 125.28 110.182 125.28C111.27 125.28 112.238 125.496 113.086 125.928C113.95 126.344 114.63 126.96 115.126 127.776L113.854 128.64C113.438 128.016 112.91 127.552 112.27 127.248C111.63 126.928 110.934 126.768 110.182 126.768C109.27 126.768 108.446 126.976 107.71 127.392C106.99 127.792 106.422 128.368 106.006 129.12C105.606 129.872 105.406 130.728 105.406 131.688C105.406 132.664 105.606 133.528 106.006 134.28C106.422 135.016 106.99 135.592 107.71 136.008C108.446 136.408 109.27 136.608 110.182 136.608C110.934 136.608 111.63 136.456 112.27 136.152C112.91 135.848 113.438 135.384 113.854 134.76L115.126 135.624C114.63 136.44 113.95 137.064 113.086 137.496C112.222 137.912 111.254 138.12 110.182 138.12ZM131.331 121.512C130.595 121.512 130.035 121.712 129.651 122.112C129.283 122.512 129.099 123.104 129.099 123.888V125.376H132.987V126.816H129.147V138H127.443V126.816H125.187V125.376H127.443V123.816C127.443 122.664 127.771 121.752 128.427 121.08C129.099 120.408 130.043 120.072 131.259 120.072C131.739 120.072 132.203 120.144 132.651 120.288C133.099 120.416 133.475 120.608 133.779 120.864L133.203 122.136C132.707 121.72 132.083 121.512 131.331 121.512ZM141.437 138.12C140.221 138.12 139.125 137.848 138.149 137.304C137.173 136.744 136.405 135.976 135.845 135C135.285 134.024 135.005 132.92 135.005 131.688C135.005 130.456 135.285 129.352 135.845 128.376C136.405 127.4 137.173 126.64 138.149 126.096C139.125 125.552 140.221 125.28 141.437 125.28C142.653 125.28 143.749 125.552 144.725 126.096C145.701 126.64 146.461 127.4 147.005 128.376C147.565 129.352 147.845 130.456 147.845 131.688C147.845 132.92 147.565 134.024 147.005 135C146.461 135.976 145.701 136.744 144.725 137.304C143.749 137.848 142.653 138.12 141.437 138.12ZM141.437 136.608C142.333 136.608 143.133 136.408 143.837 136.008C144.557 135.592 145.117 135.008 145.517 134.256C145.917 133.504 146.117 132.648 146.117 131.688C146.117 130.728 145.917 129.872 145.517 129.12C145.117 128.368 144.557 127.792 143.837 127.392C143.133 126.976 142.333 126.768 141.437 126.768C140.541 126.768 139.733 126.976 139.013 127.392C138.309 127.792 137.749 128.368 137.333 129.12C136.933 129.872 136.733 130.728 136.733 131.688C136.733 132.648 136.933 133.504 137.333 134.256C137.749 135.008 138.309 135.592 139.013 136.008C139.733 136.408 140.541 136.608 141.437 136.608ZM154.156 127.848C154.556 127 155.148 126.36 155.932 125.928C156.732 125.496 157.716 125.28 158.884 125.28V126.936L158.476 126.912C157.148 126.912 156.108 127.32 155.356 128.136C154.604 128.952 154.228 130.096 154.228 131.568V138H152.524V125.376H154.156V127.848ZM181.83 132.216H171.27C171.366 133.528 171.87 134.592 172.782 135.408C173.694 136.208 174.846 136.608 176.238 136.608C177.022 136.608 177.742 136.472 178.398 136.2C179.054 135.912 179.622 135.496 180.102 134.952L181.062 136.056C180.502 136.728 179.798 137.24 178.95 137.592C178.118 137.944 177.198 138.12 176.19 138.12C174.894 138.12 173.742 137.848 172.734 137.304C171.742 136.744 170.966 135.976 170.406 135C169.846 134.024 169.566 132.92 169.566 131.688C169.566 130.456 169.83 129.352 170.358 128.376C170.902 127.4 171.638 126.64 172.566 126.096C173.51 125.552 174.566 125.28 175.734 125.28C176.902 125.28 177.95 125.552 178.878 126.096C179.806 126.64 180.534 127.4 181.062 128.376C181.59 129.336 181.854 130.44 181.854 131.688L181.83 132.216ZM175.734 126.744C174.518 126.744 173.494 127.136 172.662 127.92C171.846 128.688 171.382 129.696 171.27 130.944H180.222C180.11 129.696 179.638 128.688 178.806 127.92C177.99 127.136 176.966 126.744 175.734 126.744ZM196.896 125.376L191.28 138H189.528L183.936 125.376H185.712L190.44 136.128L195.216 125.376H196.896ZM211.136 132.216H200.576C200.672 133.528 201.176 134.592 202.088 135.408C203 136.208 204.152 136.608 205.544 136.608C206.328 136.608 207.048 136.472 207.704 136.2C208.36 135.912 208.928 135.496 209.408 134.952L210.368 136.056C209.808 136.728 209.104 137.24 208.256 137.592C207.424 137.944 206.504 138.12 205.496 138.12C204.2 138.12 203.048 137.848 202.04 137.304C201.048 136.744 200.272 135.976 199.712 135C199.152 134.024 198.872 132.92 198.872 131.688C198.872 130.456 199.136 129.352 199.664 128.376C200.208 127.4 200.944 126.64 201.872 126.096C202.816 125.552 203.872 125.28 205.04 125.28C206.208 125.28 207.256 125.552 208.184 126.096C209.112 126.64 209.84 127.4 210.368 128.376C210.896 129.336 211.16 130.44 211.16 131.688L211.136 132.216ZM205.04 126.744C203.824 126.744 202.8 127.136 201.968 127.92C201.152 128.688 200.688 129.696 200.576 130.944H209.528C209.416 129.696 208.944 128.688 208.112 127.92C207.296 127.136 206.272 126.744 205.04 126.744ZM217.46 127.848C217.86 127 218.452 126.36 219.236 125.928C220.036 125.496 221.02 125.28 222.188 125.28V126.936L221.78 126.912C220.452 126.912 219.412 127.32 218.66 128.136C217.908 128.952 217.532 130.096 217.532 131.568V138H215.828V125.376H217.46V127.848ZM237.621 125.376L231.309 139.512C230.797 140.696 230.205 141.536 229.533 142.032C228.861 142.528 228.053 142.776 227.109 142.776C226.501 142.776 225.933 142.68 225.405 142.488C224.877 142.296 224.421 142.008 224.037 141.624L224.829 140.352C225.469 140.992 226.237 141.312 227.133 141.312C227.709 141.312 228.197 141.152 228.597 140.832C229.013 140.512 229.397 139.968 229.749 139.2L230.301 137.976L224.661 125.376H226.437L231.189 136.104L235.941 125.376H237.621ZM246.029 138.12C244.813 138.12 243.717 137.848 242.741 137.304C241.765 136.744 240.997 135.976 240.437 135C239.877 134.024 239.597 132.92 239.597 131.688C239.597 130.456 239.877 129.352 240.437 128.376C240.997 127.4 241.765 126.64 242.741 126.096C243.717 125.552 244.813 125.28 246.029 125.28C247.245 125.28 248.341 125.552 249.317 126.096C250.293 126.64 251.053 127.4 251.597 128.376C252.157 129.352 252.437 130.456 252.437 131.688C252.437 132.92 252.157 134.024 251.597 135C251.053 135.976 250.293 136.744 249.317 137.304C248.341 137.848 247.245 138.12 246.029 138.12ZM246.029 136.608C246.925 136.608 247.725 136.408 248.429 136.008C249.149 135.592 249.709 135.008 250.109 134.256C250.509 133.504 250.709 132.648 250.709 131.688C250.709 130.728 250.509 129.872 250.109 129.12C249.709 128.368 249.149 127.792 248.429 127.392C247.725 126.976 246.925 126.768 246.029 126.768C245.133 126.768 244.325 126.976 243.605 127.392C242.901 127.792 242.341 128.368 241.925 129.12C241.525 129.872 241.325 130.728 241.325 131.688C241.325 132.648 241.525 133.504 241.925 134.256C242.341 135.008 242.901 135.592 243.605 136.008C244.325 136.408 245.133 136.608 246.029 136.608ZM263.548 125.28C265.132 125.28 266.388 125.744 267.316 126.672C268.26 127.584 268.732 128.92 268.732 130.68V138H267.028V130.848C267.028 129.536 266.7 128.536 266.044 127.848C265.388 127.16 264.452 126.816 263.236 126.816C261.876 126.816 260.796 127.224 259.996 128.04C259.212 128.84 258.82 129.952 258.82 131.376V138H257.116V125.376H258.748V127.704C259.212 126.936 259.852 126.344 260.668 125.928C261.5 125.496 262.46 125.28 263.548 125.28ZM285.597 132.216H275.037C275.133 133.528 275.637 134.592 276.549 135.408C277.461 136.208 278.613 136.608 280.005 136.608C280.789 136.608 281.509 136.472 282.165 136.2C282.821 135.912 283.389 135.496 283.869 134.952L284.829 136.056C284.269 136.728 283.565 137.24 282.717 137.592C281.885 137.944 280.965 138.12 279.957 138.12C278.661 138.12 277.509 137.848 276.501 137.304C275.509 136.744 274.733 135.976 274.173 135C273.613 134.024 273.333 132.92 273.333 131.688C273.333 130.456 273.597 129.352 274.125 128.376C274.669 127.4 275.405 126.64 276.333 126.096C277.277 125.552 278.333 125.28 279.501 125.28C280.669 125.28 281.717 125.552 282.645 126.096C283.573 126.64 284.301 127.4 284.829 128.376C285.357 129.336 285.621 130.44 285.621 131.688L285.597 132.216ZM279.501 126.744C278.285 126.744 277.261 127.136 276.429 127.92C275.613 128.688 275.149 129.696 275.037 130.944H283.989C283.877 129.696 283.405 128.688 282.573 127.92C281.757 127.136 280.733 126.744 279.501 126.744Z" fill="black"/>
<path d="M41.8608 39V13.582H45.1128L53.7612 27.6445L62.3217 13.582H65.4506V39H62.1108V19.2949L54.9917 30.9492H52.3725L45.2358 19.3301V39H41.8608ZM84.776 39.3867C82.7018 39.3867 80.9967 39.1582 79.6608 38.7012C78.3366 38.2441 77.3053 37.6172 76.567 36.8203C75.8288 36.0234 75.3131 35.1035 75.0202 34.0605C74.7389 33.0059 74.5983 31.8809 74.5983 30.6855V13.582H78.1491V31.0547C78.1491 32.6133 78.4538 33.7852 79.0631 34.5703C79.6842 35.3555 80.4987 35.8828 81.5065 36.1523C82.5143 36.4102 83.6042 36.5391 84.776 36.5391C85.9713 36.5391 87.0378 36.4102 87.9753 36.1523C88.9245 35.8828 89.6745 35.3555 90.2253 34.5703C90.776 33.7852 91.0514 32.6133 91.0514 31.0547V13.582H94.6022V30.6855C94.6022 31.8574 94.4557 32.9707 94.1628 34.0254C93.8815 35.0684 93.3835 35.9941 92.6686 36.8027C91.9538 37.6113 90.9577 38.2441 89.6803 38.7012C88.403 39.1582 86.7682 39.3867 84.776 39.3867ZM112.064 39.3867C110.178 39.3867 108.437 39.1875 106.844 38.7891C105.25 38.3789 103.785 37.7871 102.449 37.0137L103.697 34.3066C104.67 34.8809 105.906 35.3965 107.406 35.8535C108.906 36.3105 110.435 36.5391 111.994 36.5391C113.377 36.5391 114.432 36.3574 115.158 35.9941C115.896 35.6309 116.406 35.0684 116.687 34.3066C116.969 33.5332 117.109 32.5371 117.109 31.3184C117.109 30.6035 116.916 30 116.529 29.5078C116.142 29.0039 115.305 28.5352 114.015 28.1016L107.881 26.0625C106.123 25.4766 104.857 24.7324 104.084 23.8301C103.31 22.916 102.924 21.5918 102.924 19.8574C102.924 18.2285 103.293 16.9277 104.031 15.9551C104.781 14.9824 105.801 14.2793 107.09 13.8457C108.379 13.4121 109.832 13.1953 111.449 13.1953C113.617 13.1953 115.375 13.3652 116.723 13.7051C118.07 14.0332 119.154 14.4551 119.974 14.9707L119.113 17.7305C118.351 17.3203 117.396 16.9395 116.248 16.5879C115.111 16.2246 113.717 16.043 112.064 16.043C110.224 16.043 108.812 16.2832 107.828 16.7637C106.844 17.2441 106.351 18.2812 106.351 19.875C106.351 20.6484 106.515 21.2812 106.844 21.7734C107.183 22.2539 107.892 22.6816 108.971 23.0566L115.369 25.2188C117.103 25.8047 118.369 26.5781 119.166 27.5391C119.974 28.5 120.379 29.9414 120.379 31.8633C120.379 34.207 119.728 36.0469 118.428 37.3828C117.139 38.7188 115.017 39.3867 112.064 39.3867ZM127.98 36.3633H132.831V16.2012H127.98V13.582H141.198V16.2012H136.364V36.3633H141.198V39H127.98V36.3633ZM159.715 39.3867C157.594 39.3867 155.865 39.1699 154.53 38.7363C153.194 38.3027 152.162 37.6934 151.436 36.9082C150.721 36.1113 150.223 35.168 149.942 34.0781C149.672 32.9883 149.537 31.7812 149.537 30.457V22.4766C149.537 21.1289 149.666 19.8926 149.924 18.7676C150.194 17.6309 150.686 16.6465 151.401 15.8145C152.127 14.9824 153.153 14.3379 154.477 13.8809C155.813 13.4238 157.547 13.1953 159.68 13.1953C162.246 13.1953 164.215 13.5059 165.586 14.127C166.957 14.7363 167.901 15.6387 168.416 16.834C168.932 18.0293 169.19 19.5 169.19 21.2461V21.4746L165.832 21.7734V21.2988C165.832 19.7637 165.633 18.6211 165.235 17.8711C164.848 17.1211 164.203 16.6289 163.301 16.3945C162.399 16.1602 161.192 16.043 159.68 16.043C158.192 16.043 156.961 16.2129 155.989 16.5527C155.016 16.8809 154.289 17.4668 153.809 18.3105C153.328 19.1426 153.088 20.3145 153.088 21.8262V31.002C153.088 32.502 153.334 33.6504 153.826 34.4473C154.319 35.2441 155.057 35.7949 156.041 36.0996C157.037 36.3926 158.285 36.5391 159.785 36.5391C161.262 36.5391 162.44 36.4395 163.319 36.2402C164.209 36.041 164.848 35.5898 165.235 34.8867C165.633 34.1719 165.832 33.0586 165.832 31.5469V31.125H169.19V31.3008C169.19 32.5781 169.067 33.7207 168.821 34.7285C168.586 35.7246 168.141 36.5684 167.485 37.2598C166.828 37.9512 165.873 38.4785 164.619 38.8418C163.377 39.2051 161.742 39.3867 159.715 39.3867ZM196.678 39.3867C194.792 39.3867 193.051 39.1875 191.458 38.7891C189.864 38.3789 188.399 37.7871 187.063 37.0137L188.311 34.3066C189.284 34.8809 190.52 35.3965 192.02 35.8535C193.52 36.3105 195.049 36.5391 196.608 36.5391C197.991 36.5391 199.046 36.3574 199.772 35.9941C200.51 35.6309 201.02 35.0684 201.301 34.3066C201.583 33.5332 201.723 32.5371 201.723 31.3184C201.723 30.6035 201.53 30 201.143 29.5078C200.757 29.0039 199.919 28.5352 198.63 28.1016L192.495 26.0625C190.737 25.4766 189.471 24.7324 188.698 23.8301C187.924 22.916 187.538 21.5918 187.538 19.8574C187.538 18.2285 187.907 16.9277 188.645 15.9551C189.395 14.9824 190.415 14.2793 191.704 13.8457C192.993 13.4121 194.446 13.1953 196.063 13.1953C198.231 13.1953 199.989 13.3652 201.337 13.7051C202.684 14.0332 203.768 14.4551 204.589 14.9707L203.727 17.7305C202.965 17.3203 202.01 16.9395 200.862 16.5879C199.725 16.2246 198.331 16.043 196.678 16.043C194.839 16.043 193.426 16.2832 192.442 16.7637C191.458 17.2441 190.965 18.2812 190.965 19.875C190.965 20.6484 191.13 21.2812 191.458 21.7734C191.798 22.2539 192.507 22.6816 193.585 23.0566L199.983 25.2188C201.717 25.8047 202.983 26.5781 203.78 27.5391C204.589 28.5 204.993 29.9414 204.993 31.8633C204.993 34.207 204.342 36.0469 203.042 37.3828C201.753 38.7188 199.632 39.3867 196.678 39.3867ZM223 39.3867C220.879 39.3867 219.133 39.1699 217.762 38.7363C216.402 38.3027 215.342 37.6934 214.58 36.9082C213.818 36.1113 213.285 35.168 212.98 34.0781C212.676 32.9883 212.523 31.7812 212.523 30.457V22.459C212.523 21.1113 212.67 19.875 212.963 18.75C213.267 17.625 213.801 16.6465 214.562 15.8145C215.324 14.9824 216.385 14.3379 217.744 13.8809C219.115 13.4238 220.867 13.1953 223 13.1953C225.051 13.1953 226.738 13.4355 228.062 13.916C229.387 14.3965 230.418 15.0703 231.156 15.9375C231.894 16.793 232.41 17.7949 232.703 18.9434C233.008 20.0918 233.16 21.3398 233.16 22.6875V30.2109C233.16 31.5117 233.008 32.7246 232.703 33.8496C232.41 34.9629 231.889 35.9355 231.139 36.7676C230.4 37.5879 229.369 38.2324 228.045 38.7012C226.721 39.1582 225.039 39.3867 223 39.3867ZM223 36.5391C224.512 36.5391 225.754 36.3926 226.726 36.0996C227.711 35.7949 228.437 35.2441 228.906 34.4473C229.387 33.6504 229.627 32.502 229.627 31.002V21.8086C229.627 20.2969 229.387 19.125 228.906 18.293C228.426 17.4609 227.693 16.8809 226.709 16.5527C225.736 16.2129 224.5 16.043 223 16.043C221.512 16.043 220.252 16.2129 219.221 16.5527C218.189 16.8809 217.404 17.4609 216.865 18.293C216.338 19.125 216.074 20.2969 216.074 21.8086V31.002C216.074 32.502 216.338 33.6504 216.865 34.4473C217.392 35.2441 218.172 35.7949 219.203 36.0996C220.234 36.3926 221.5 36.5391 223 36.5391ZM251.923 39.3867C249.849 39.3867 248.144 39.1582 246.808 38.7012C245.483 38.2441 244.452 37.6172 243.714 36.8203C242.976 36.0234 242.46 35.1035 242.167 34.0605C241.886 33.0059 241.745 31.8809 241.745 30.6855V13.582H245.296V31.0547C245.296 32.6133 245.601 33.7852 246.21 34.5703C246.831 35.3555 247.646 35.8828 248.653 36.1523C249.661 36.4102 250.751 36.5391 251.923 36.5391C253.118 36.5391 254.185 36.4102 255.122 36.1523C256.071 35.8828 256.821 35.3555 257.372 34.5703C257.923 33.7852 258.198 32.6133 258.198 31.0547V13.582H261.749V30.6855C261.749 31.8574 261.603 32.9707 261.31 34.0254C261.028 35.0684 260.53 35.9941 259.815 36.8027C259.101 37.6113 258.105 38.2441 256.827 38.7012C255.55 39.1582 253.915 39.3867 251.923 39.3867ZM270.897 13.582H274.43V36.2754H285.838V39H270.897V13.582Z" fill="black"/>
<rect x="39.1488" y="49.5" width="247.936" height="59" fill="white" stroke="black"/>
<rect x="118.808" y="49.5" width="13.9362" height="39" fill="black" stroke="black"/>
<rect x="138.723" y="49.5" width="13.9362" height="39" fill="black" stroke="black"/>
<rect x="173.574" y="49.5" width="13.9362" height="39" fill="black" stroke="black"/>
<rect x="193.489" y="49.5" width="13.9362" height="39" fill="black" stroke="black"/>
<rect x="228.34" y="49.5" width="13.9362" height="39" fill="black" stroke="black"/>
<rect x="248.255" y="49.5" width="13.9362" height="39" fill="black" stroke="black"/>
<rect x="268.17" y="49.5" width="13.9362" height="39" fill="black" stroke="black"/>
<rect x="98.8934" y="49.5" width="13.9362" height="39" fill="black" stroke="black"/>
<rect x="64.0422" y="49.5" width="13.9362" height="39" fill="black" stroke="black"/>
<rect x="44.1274" y="49.5" width="13.9362" height="39" fill="black" stroke="black"/>
<rect x="50.8466" y="89.2489" width="0.497872" height="19.5021" fill="black" stroke="black" stroke-width="0.497872"/>
<rect x="70.7614" y="89.2489" width="0.497872" height="19.5021" fill="black" stroke="black" stroke-width="0.497872"/>
<rect x="105.612" y="89.2489" width="0.497872" height="19.5021" fill="black" stroke="black" stroke-width="0.497872"/>
<mask id="path-18-inside-1_49_24" fill="white">
<path d="M125.275 89H126.271V109H125.275V89Z"/>
</mask>
<path d="M125.275 89H126.271V109H125.275V89Z" fill="black"/>
<path d="M125.275 89V88H124.275V89H125.275ZM126.271 89H127.271V88H126.271V89ZM126.271 109V110H127.271V109H126.271ZM125.275 109H124.275V110H125.275V109ZM125.275 90H126.271V88H125.275V90ZM125.271 89V109H127.271V89H125.271ZM126.271 108H125.275V110H126.271V108ZM126.275 109V89H124.275V109H126.275Z" fill="black" mask="url(#path-18-inside-1_49_24)"/>
<rect x="145.442" y="89.2489" width="0.497872" height="19.5021" fill="black" stroke="black" stroke-width="0.497872"/>
<rect x="180.293" y="89.2489" width="0.497872" height="19.5021" fill="black" stroke="black" stroke-width="0.497872"/>
<rect x="200.205" y="89.2489" width="0.497872" height="19.5021" fill="black" stroke="black" stroke-width="0.497872"/>
<rect x="235.059" y="89.2489" width="0.497872" height="19.5021" fill="black" stroke="black" stroke-width="0.497872"/>
<rect x="254.977" y="89.2489" width="0.497872" height="19.5021" fill="black" stroke="black" stroke-width="0.497872"/>
<rect x="274.886" y="89.2489" width="0.497872" height="19.5021" fill="black" stroke="black" stroke-width="0.497872"/>
<rect x="218.132" y="49.2489" width="0.497872" height="59.5021" fill="black" stroke="black" stroke-width="0.497872"/>
<rect x="163.366" y="49.2489" width="0.497872" height="59.5021" fill="black" stroke="black" stroke-width="0.497872"/>
<rect x="88.6848" y="49.2489" width="0.497872" height="59.5021" fill="black" stroke="black" stroke-width="0.497872"/>
</svg>
